<svg width="66" height="27" viewBox="0 0 66 27" fill="none" xmlns="http://www.w3.org/2000/svg">
<rect width="66" height="27" rx="13.5" fill="#F6F6F6"/>
<g clip-path="url(#clip0_1_257)">
<path d="M25 9.59207V16.344C25 17.4974 24.0749 18.4361 22.9378 18.4361H16.3951L12.0549 21.5V18.4361C10.9211 18.4322 10 17.4951 10 16.344V9.59207C10 8.43853 10.9251 7.5 12.0622 7.5H22.9378C24.0749 7.5 25 8.43853 25 9.59207Z" fill="#FFB800"/>
<path d="M26 9.6043V16.3957C26 17.5559 25.0135 18.5 23.801 18.5H18V7.5H23.801C25.0135 7.5 26 8.44402 26 9.6043Z" fill="#FF8600"/>
<path d="M15 10.5H22V11.5H15V10.5Z" fill="white"/>
<path d="M15 12.5H22V13.5H15V12.5Z" fill="white"/>
<path d="M15 14.5H22V15.5H15V14.5Z" fill="white"/>
<path d="M18 10.5H21V11.5H18V10.5Z" fill="#E1E1E3"/>
<path d="M18 12.5H21V13.5H18V12.5Z" fill="#E1E1E3"/>
<path d="M18 13.5H21V14.5H18V13.5Z" fill="#E1E1E3"/>
</g>
<path d="M31.134 19L30.672 17.852L33.612 14.562C33.78 14.394 33.9527 14.2027 34.13 13.988C34.3073 13.764 34.4753 13.5353 34.634 13.302C34.802 13.0593 34.9373 12.826 35.04 12.602C35.1427 12.3687 35.194 12.154 35.194 11.958C35.194 11.706 35.138 11.4867 35.026 11.3C34.9233 11.1133 34.774 10.9687 34.578 10.866C34.382 10.7633 34.1393 10.712 33.85 10.712C33.598 10.712 33.3507 10.7867 33.108 10.936C32.8747 11.076 32.6553 11.2813 32.45 11.552C32.254 11.8133 32.0907 12.126 31.96 12.49L30.588 11.678C30.756 11.1367 31.008 10.67 31.344 10.278C31.6893 9.87667 32.0907 9.56867 32.548 9.354C33.0147 9.13933 33.5187 9.032 34.06 9.032C34.62 9.032 35.1193 9.14867 35.558 9.382C35.9967 9.61533 36.342 9.93733 36.594 10.348C36.8553 10.7587 36.986 11.2393 36.986 11.79C36.986 11.9953 36.9627 12.21 36.916 12.434C36.8693 12.6487 36.7947 12.8773 36.692 13.12C36.5987 13.3533 36.4727 13.6007 36.314 13.862C36.1553 14.114 35.964 14.38 35.74 14.66C35.5253 14.94 35.278 15.234 34.998 15.542L32.772 17.964L32.492 17.32H37.336V19H31.134ZM41.6459 19.14C40.9179 19.14 40.2833 18.9813 39.7419 18.664C39.2006 18.3373 38.7013 17.7867 38.2439 17.012L39.6159 16.144C39.8306 16.4893 40.0499 16.7693 40.2739 16.984C40.5073 17.1893 40.7406 17.3433 40.9739 17.446C41.2166 17.5393 41.4733 17.586 41.7439 17.586C42.0519 17.586 42.3319 17.5113 42.5839 17.362C42.8453 17.2127 43.0506 17.0073 43.1999 16.746C43.3586 16.4847 43.4379 16.186 43.4379 15.85C43.4379 15.514 43.3726 15.2293 43.2419 14.996C43.1206 14.7627 42.9386 14.5853 42.6959 14.464C42.4626 14.3333 42.1779 14.268 41.8419 14.268C41.6926 14.268 41.5339 14.2867 41.3659 14.324C41.1979 14.352 41.0206 14.3987 40.8339 14.464C40.6473 14.52 40.4419 14.59 40.2179 14.674L39.7699 13.484L42.5559 10.404L42.9759 10.81L38.8459 10.782V9.172H44.5999L44.9359 9.844L41.7159 13.358L41.2959 12.896C41.3706 12.8587 41.4919 12.826 41.6599 12.798C41.8373 12.7607 41.9913 12.742 42.1219 12.742C42.5326 12.742 42.9246 12.8213 43.2979 12.98C43.6713 13.1293 43.9933 13.344 44.2639 13.624C44.5439 13.904 44.7633 14.2307 44.9219 14.604C45.0806 14.968 45.1599 15.3647 45.1599 15.794C45.1599 16.438 45.0013 17.012 44.6839 17.516C44.3759 18.0107 43.9559 18.4073 43.4239 18.706C42.8919 18.9953 42.2993 19.14 41.6459 19.14ZM50.8549 19V11.09L51.5269 11.16L48.1949 15.234L48.0409 14.982H54.2709V16.564H47.0609L46.3049 15.108L51.1769 9.172H52.6049V19H50.8549Z" fill="#3B3B45"/>
<defs>
<clipPath id="clip0_1_257">
<rect width="16" height="16" fill="white" transform="translate(10 5.5)"/>
</clipPath>
</defs>
</svg>
