<svg width="24" height="24" viewBox="0 0 24 24" fill="none" xmlns="http://www.w3.org/2000/svg">
<path d="M6.64482 12.3579L6.64483 12.3579L6.64192 12.355C6.59505 12.3085 6.55785 12.2532 6.53247 12.1923C6.50709 12.1314 6.49402 12.066 6.49402 12C6.49402 11.934 6.50709 11.8686 6.53247 11.8077C6.55785 11.7468 6.59505 11.6915 6.64192 11.645L6.64337 11.6436L11.6388 6.64808C11.6857 6.60404 11.7406 6.56944 11.8006 6.54618L11.8114 6.542L11.8219 6.53732C11.878 6.51256 11.9386 6.49977 11.9998 6.49977C12.0611 6.49977 12.1217 6.51256 12.1777 6.53732L12.1883 6.542L12.1991 6.54618C12.259 6.56944 12.3139 6.60404 12.3608 6.64808L17.3563 11.6436C17.4508 11.7381 17.5039 11.8663 17.5039 12C17.5039 12.1337 17.4508 12.2619 17.3563 12.3564C17.2617 12.451 17.1335 12.5041 16.9998 12.5041C16.8662 12.5041 16.738 12.451 16.6435 12.3566C16.6435 12.3566 16.6434 12.3565 16.6434 12.3564L13.3539 9.05698L12.4998 8.2003V9.41V17C12.4998 17.1326 12.4471 17.2598 12.3534 17.3536C12.2596 17.4473 12.1324 17.5 11.9998 17.5C11.8672 17.5 11.74 17.4473 11.6463 17.3536C11.5525 17.2598 11.4998 17.1326 11.4998 17V9.41V8.2003L10.6457 9.05698L7.35572 12.357L7.35481 12.3579C7.30833 12.4048 7.25303 12.442 7.1921 12.4673C7.13117 12.4927 7.06582 12.5058 6.99981 12.5058C6.93381 12.5058 6.86846 12.4927 6.80753 12.4673C6.7466 12.442 6.6913 12.4048 6.64482 12.3579Z" stroke="#00A441"/>
</svg>
