<svg width="13" height="12" viewBox="0 0 13 12" fill="none" xmlns="http://www.w3.org/2000/svg">
<ellipse cx="6.30703" cy="6" rx="6.19277" ry="6" fill="#FF8600"/>
<path d="M6.24626 10.0994C5.77751 10.0994 5.35966 10.0189 4.99271 9.85795C4.62813 9.69697 4.33812 9.47325 4.12268 9.18679C3.90961 8.89796 3.79361 8.56297 3.77467 8.18182H4.66956C4.68849 8.41619 4.76899 8.61861 4.91103 8.78906C5.05308 8.95715 5.23892 9.08736 5.46856 9.17969C5.6982 9.27202 5.9527 9.31818 6.23206 9.31818C6.54456 9.31818 6.82154 9.26373 7.06302 9.15483C7.3045 9.04593 7.49389 8.89441 7.6312 8.70028C7.76851 8.50616 7.83717 8.28125 7.83717 8.02557C7.83717 7.75805 7.77088 7.52249 7.63831 7.31889C7.50573 7.11293 7.3116 6.95194 7.05592 6.83594C6.80024 6.71993 6.48774 6.66193 6.11842 6.66193H5.53603V5.88068H6.11842C6.40724 5.88068 6.66056 5.8286 6.87836 5.72443C7.09853 5.62026 7.27017 5.47348 7.39328 5.28409C7.51875 5.0947 7.58149 4.87216 7.58149 4.61648C7.58149 4.37026 7.52704 4.15601 7.41814 3.97372C7.30923 3.79143 7.15535 3.64938 6.95649 3.54759C6.75999 3.44579 6.52798 3.39489 6.26046 3.39489C6.00952 3.39489 5.77278 3.44105 5.55024 3.53338C5.33007 3.62334 5.15014 3.75473 5.01046 3.92756C4.87079 4.09801 4.79503 4.30398 4.78319 4.54545H3.93092C3.94512 4.1643 4.05994 3.83049 4.27538 3.54403C4.49081 3.25521 4.77254 3.0303 5.12055 2.86932C5.47093 2.70833 5.85564 2.62784 6.27467 2.62784C6.72448 2.62784 7.11037 2.71899 7.43234 2.90128C7.75431 3.0812 8.00171 3.31913 8.17453 3.61506C8.34735 3.91098 8.43376 4.23059 8.43376 4.57386C8.43376 4.98343 8.32604 5.33262 8.11061 5.62145C7.89754 5.91027 7.60753 6.11032 7.24058 6.22159V6.27841C7.69986 6.35417 8.05852 6.54948 8.31657 6.86435C8.57462 7.17685 8.70365 7.56392 8.70365 8.02557C8.70365 8.42093 8.59593 8.77604 8.38049 9.09091C8.16742 9.40341 7.87623 9.64962 7.50691 9.82955C7.1376 10.0095 6.71738 10.0994 6.24626 10.0994Z" fill="white"/>
</svg>
