<svg width="78" height="20" viewBox="0 0 78 20" fill="none" xmlns="http://www.w3.org/2000/svg">
<path d="M18.7667 5.51667C18.6821 5.31304 18.5203 5.15123 18.3167 5.06667C18.2165 5.02397 18.1089 5.00132 18 5H13.8334C13.6124 5 13.4004 5.0878 13.2441 5.24408C13.0878 5.40036 13 5.61232 13 5.83333C13 6.05435 13.0878 6.26631 13.2441 6.42259C13.4004 6.57887 13.6124 6.66667 13.8334 6.66667H15.9917L11.3334 11.325L8.5917 8.575C8.51423 8.49689 8.42206 8.4349 8.32051 8.39259C8.21896 8.35028 8.11004 8.3285 8.00003 8.3285C7.89002 8.3285 7.7811 8.35028 7.67955 8.39259C7.578 8.4349 7.48583 8.49689 7.40836 8.575L2.40836 13.575C2.33026 13.6525 2.26826 13.7446 2.22595 13.8462C2.18365 13.9477 2.16187 14.0567 2.16187 14.1667C2.16187 14.2767 2.18365 14.3856 2.22595 14.4871C2.26826 14.5887 2.33026 14.6809 2.40836 14.7583C2.48583 14.8364 2.578 14.8984 2.67955 14.9407C2.7811 14.9831 2.89002 15.0048 3.00003 15.0048C3.11004 15.0048 3.21896 14.9831 3.32051 14.9407C3.42206 14.8984 3.51423 14.8364 3.5917 14.7583L8.00003 10.3417L10.7417 13.0917C10.8192 13.1698 10.9113 13.2318 11.0129 13.2741C11.1144 13.3164 11.2234 13.3382 11.3334 13.3382C11.4434 13.3382 11.5523 13.3164 11.6538 13.2741C11.7554 13.2318 11.8476 13.1698 11.925 13.0917L17.1667 7.84167V10C17.1667 10.221 17.2545 10.433 17.4108 10.5893C17.5671 10.7455 17.779 10.8333 18 10.8333C18.221 10.8333 18.433 10.7455 18.5893 10.5893C18.7456 10.433 18.8334 10.221 18.8334 10V5.83333C18.832 5.72444 18.8094 5.61685 18.7667 5.51667Z" fill="#35DB95"/>
<path d="M31.876 15.216V6.128L32.468 7.488L30.068 8.624L29.604 6.192L32.788 4.64H34.548V15.216H31.876ZM29.828 16V13.6H36.644V16H29.828ZM42.8608 16.16C41.8581 16.16 40.9994 15.9307 40.2848 15.472C39.5808 15.0133 39.0421 14.3573 38.6688 13.504C38.2954 12.64 38.1088 11.6053 38.1088 10.4C38.1088 9.19467 38.2954 8.16533 38.6688 7.312C39.0421 6.448 39.5808 5.78667 40.2848 5.328C40.9994 4.86933 41.8581 4.64 42.8608 4.64C43.8634 4.64 44.7221 4.86933 45.4368 5.328C46.1514 5.78667 46.6954 6.448 47.0688 7.312C47.4421 8.16533 47.6288 9.19467 47.6288 10.4C47.6288 11.6053 47.4421 12.64 47.0688 13.504C46.6954 14.3573 46.1514 15.0133 45.4368 15.472C44.7221 15.9307 43.8634 16.16 42.8608 16.16ZM42.8608 13.856C43.5541 13.856 44.0874 13.5573 44.4608 12.96C44.8448 12.3627 45.0368 11.5093 45.0368 10.4C45.0368 9.25867 44.8448 8.384 44.4608 7.776C44.0874 7.15733 43.5541 6.848 42.8608 6.848C42.1674 6.848 41.6288 7.15733 41.2448 7.776C40.8714 8.384 40.6848 9.25867 40.6848 10.4C40.6848 11.5093 40.8714 12.3627 41.2448 12.96C41.6288 13.5573 42.1674 13.856 42.8608 13.856ZM50.3136 16.176C49.8763 16.176 49.535 16.0533 49.2896 15.808C49.055 15.5627 48.9376 15.2107 48.9376 14.752C48.9376 14.3253 49.0656 13.9787 49.3216 13.712C49.5776 13.4453 49.9083 13.312 50.3136 13.312C50.751 13.312 51.0923 13.44 51.3376 13.696C51.583 13.9413 51.7056 14.2933 51.7056 14.752C51.7056 15.168 51.5776 15.5093 51.3216 15.776C51.0656 16.0427 50.7296 16.176 50.3136 16.176ZM56.967 16.16C56.0603 16.16 55.2657 15.9733 54.583 15.6C53.911 15.216 53.2977 14.56 52.743 13.632L54.695 12.368C54.9297 12.7413 55.1697 13.04 55.415 13.264C55.671 13.488 55.9323 13.6533 56.199 13.76C56.4763 13.856 56.7643 13.904 57.063 13.904C57.3617 13.904 57.6337 13.84 57.879 13.712C58.135 13.5733 58.3377 13.3813 58.487 13.136C58.647 12.8907 58.727 12.6133 58.727 12.304C58.727 11.9733 58.6577 11.696 58.519 11.472C58.391 11.2373 58.199 11.0613 57.943 10.944C57.6977 10.8267 57.399 10.768 57.047 10.768C56.887 10.768 56.7163 10.7893 56.535 10.832C56.3537 10.864 56.1617 10.912 55.959 10.976C55.7563 11.04 55.5483 11.1253 55.335 11.232L54.743 9.648L57.463 6.688L58.199 7.088L53.527 6.992V4.704H60.407L60.903 5.696L57.207 9.664L56.567 8.912C56.6523 8.86933 56.791 8.832 56.983 8.8C57.1857 8.75733 57.3777 8.736 57.559 8.736C58.0603 8.736 58.5297 8.82667 58.967 9.008C59.4043 9.18933 59.7937 9.44 60.135 9.76C60.4763 10.08 60.743 10.4587 60.935 10.896C61.127 11.3227 61.223 11.7813 61.223 12.272C61.223 13.0187 61.031 13.6853 60.647 14.272C60.2737 14.848 59.7617 15.3067 59.111 15.648C58.471 15.9893 57.7563 16.16 56.967 16.16ZM64.5641 16L71.9721 4.8H74.3561L66.8681 16H64.5641ZM65.2841 10.736C64.7401 10.736 64.2548 10.6027 63.8281 10.336C63.4015 10.0587 63.0655 9.68533 62.8201 9.216C62.5855 8.74667 62.4681 8.21333 62.4681 7.616C62.4681 7.008 62.5855 6.46933 62.8201 6C63.0655 5.52 63.4015 5.14667 63.8281 4.88C64.2548 4.61333 64.7401 4.48 65.2841 4.48C65.8388 4.48 66.3241 4.61333 66.7401 4.88C67.1668 5.14667 67.4975 5.52 67.7321 6C67.9668 6.46933 68.0841 7.008 68.0841 7.616C68.0841 8.21333 67.9615 8.74667 67.7161 9.216C67.4708 9.68533 67.1348 10.0587 66.7081 10.336C66.2921 10.6027 65.8175 10.736 65.2841 10.736ZM65.2841 9.088C65.4655 9.088 65.6148 9.02933 65.7321 8.912C65.8601 8.79467 65.9561 8.624 66.0201 8.4C66.0841 8.176 66.1161 7.91467 66.1161 7.616C66.1161 7.31733 66.0841 7.056 66.0201 6.832C65.9561 6.608 65.8601 6.43733 65.7321 6.32C65.6148 6.192 65.4655 6.128 65.2841 6.128C65.1135 6.128 64.9641 6.192 64.8361 6.32C64.7081 6.43733 64.6068 6.608 64.5321 6.832C64.4681 7.056 64.4361 7.31733 64.4361 7.616C64.4361 7.91467 64.4681 8.176 64.5321 8.4C64.5961 8.624 64.6921 8.79467 64.8201 8.912C64.9588 9.02933 65.1135 9.088 65.2841 9.088ZM73.8121 16.16C73.2681 16.16 72.7828 16.0213 72.3561 15.744C71.9295 15.4667 71.5935 15.0987 71.3481 14.64C71.1135 14.1707 70.9961 13.6373 70.9961 13.04C70.9961 12.432 71.1135 11.8933 71.3481 11.424C71.5828 10.944 71.9135 10.5707 72.3401 10.304C72.7668 10.0373 73.2575 9.904 73.8121 9.904C74.3668 9.904 74.8521 10.0373 75.2681 10.304C75.6948 10.5707 76.0255 10.944 76.2601 11.424C76.4948 11.8933 76.6121 12.432 76.6121 13.04C76.6121 13.6267 76.4895 14.1547 76.2441 14.624C75.9988 15.0933 75.6628 15.4667 75.2361 15.744C74.8201 16.0213 74.3455 16.16 73.8121 16.16ZM73.8121 14.512C73.9935 14.512 74.1428 14.4533 74.2601 14.336C74.3881 14.208 74.4841 14.0373 74.5481 13.824C74.6121 13.6 74.6441 13.3387 74.6441 13.04C74.6441 12.7413 74.6121 12.48 74.5481 12.256C74.4841 12.032 74.3881 11.8613 74.2601 11.744C74.1428 11.616 73.9935 11.552 73.8121 11.552C73.6308 11.552 73.4761 11.6107 73.3481 11.728C73.2201 11.8453 73.1188 12.0213 73.0441 12.256C72.9801 12.48 72.9481 12.7413 72.9481 13.04C72.9481 13.3387 72.9801 13.6 73.0441 13.824C73.1188 14.0373 73.2201 14.208 73.3481 14.336C73.4761 14.4533 73.6308 14.512 73.8121 14.512Z" fill="#3B3B45"/>
</svg>
