<svg width="64" height="27" viewBox="0 0 64 27" fill="none" xmlns="http://www.w3.org/2000/svg">
<rect width="64" height="27" rx="13.5" fill="#F6F6F6"/>
<g clip-path="url(#clip0_1_269)">
<path d="M26 11.4975L18.75 5.5V9.16468C16.5756 9.27346 14.5978 10.1352 13.0747 11.4975C11.1884 13.1841 10 15.6376 10 18.3751V21.5H10.9375C10.9375 17.2774 14.3722 13.8418 18.5938 13.8418H18.75V17.4949L26 11.4975Z" fill="#FF641A"/>
<path d="M18.75 17.4959V13.8438H18.5938C14.3722 13.8438 10.9375 17.2784 10.9375 21.5H10V18.3759C10 15.6391 11.1884 13.1862 13.0747 11.5H26L18.75 17.4959Z" fill="#F03800"/>
</g>
<path d="M33.01 18.314V10.362L33.528 11.034L31.54 12.042L31.134 10.446L33.808 9.06H34.816V18.314H33.01ZM31.372 19V17.32H36.496V19H31.372ZM38.7285 19L38.2665 17.852L41.2065 14.562C41.3745 14.394 41.5471 14.2027 41.7245 13.988C41.9018 13.764 42.0698 13.5353 42.2285 13.302C42.3965 13.0593 42.5318 12.826 42.6345 12.602C42.7371 12.3687 42.7885 12.154 42.7885 11.958C42.7885 11.706 42.7325 11.4867 42.6205 11.3C42.5178 11.1133 42.3685 10.9687 42.1725 10.866C41.9765 10.7633 41.7338 10.712 41.4445 10.712C41.1925 10.712 40.9451 10.7867 40.7025 10.936C40.4691 11.076 40.2498 11.2813 40.0445 11.552C39.8485 11.8133 39.6851 12.126 39.5545 12.49L38.1825 11.678C38.3505 11.1367 38.6025 10.67 38.9385 10.278C39.2838 9.87667 39.6851 9.56867 40.1425 9.354C40.6091 9.13933 41.1131 9.032 41.6545 9.032C42.2145 9.032 42.7138 9.14867 43.1525 9.382C43.5911 9.61533 43.9365 9.93733 44.1885 10.348C44.4498 10.7587 44.5805 11.2393 44.5805 11.79C44.5805 11.9953 44.5571 12.21 44.5105 12.434C44.4638 12.6487 44.3891 12.8773 44.2865 13.12C44.1931 13.3533 44.0671 13.6007 43.9085 13.862C43.7498 14.114 43.5585 14.38 43.3345 14.66C43.1198 14.94 42.8725 15.234 42.5925 15.542L40.3665 17.964L40.0865 17.32H44.9305V19H38.7285ZM49.2404 19.14C48.5124 19.14 47.8777 18.9813 47.3364 18.664C46.795 18.3373 46.2957 17.7867 45.8384 17.012L47.2104 16.144C47.425 16.4893 47.6444 16.7693 47.8684 16.984C48.1017 17.1893 48.335 17.3433 48.5684 17.446C48.811 17.5393 49.0677 17.586 49.3384 17.586C49.6464 17.586 49.9264 17.5113 50.1784 17.362C50.4397 17.2127 50.645 17.0073 50.7944 16.746C50.953 16.4847 51.0324 16.186 51.0324 15.85C51.0324 15.514 50.967 15.2293 50.8364 14.996C50.715 14.7627 50.533 14.5853 50.2904 14.464C50.057 14.3333 49.7724 14.268 49.4364 14.268C49.287 14.268 49.1284 14.2867 48.9604 14.324C48.7924 14.352 48.615 14.3987 48.4284 14.464C48.2417 14.52 48.0364 14.59 47.8124 14.674L47.3644 13.484L50.1504 10.404L50.5704 10.81L46.4404 10.782V9.172H52.1944L52.5304 9.844L49.3104 13.358L48.8904 12.896C48.965 12.8587 49.0864 12.826 49.2544 12.798C49.4317 12.7607 49.5857 12.742 49.7164 12.742C50.127 12.742 50.519 12.8213 50.8924 12.98C51.2657 13.1293 51.5877 13.344 51.8584 13.624C52.1384 13.904 52.3577 14.2307 52.5164 14.604C52.675 14.968 52.7544 15.3647 52.7544 15.794C52.7544 16.438 52.5957 17.012 52.2784 17.516C51.9704 18.0107 51.5504 18.4073 51.0184 18.706C50.4864 18.9953 49.8937 19.14 49.2404 19.14Z" fill="#3B3B45"/>
<defs>
<clipPath id="clip0_1_269">
<rect width="16" height="16" fill="white" transform="translate(10 5.5)"/>
</clipPath>
</defs>
</svg>
