<svg width="24" height="24" viewBox="0 0 24 24" fill="none" xmlns="http://www.w3.org/2000/svg">
<path d="M17.3552 11.6421L17.3552 11.6421L17.3581 11.645C17.405 11.6915 17.4421 11.7468 17.4675 11.8077C17.4929 11.8686 17.506 11.934 17.506 12C17.506 12.066 17.4929 12.1314 17.4675 12.1923C17.4421 12.2532 17.405 12.3085 17.3581 12.355L17.3566 12.3564L12.3612 17.3519C12.3143 17.396 12.2594 17.4306 12.1994 17.4538L12.1886 17.458L12.1781 17.4627C12.122 17.4874 12.0614 17.5002 12.0002 17.5002C11.9389 17.5002 11.8783 17.4874 11.8223 17.4627L11.8117 17.458L11.8009 17.4538C11.741 17.4306 11.6861 17.396 11.6392 17.3519L6.64374 12.3564C6.5492 12.2619 6.49609 12.1337 6.49609 12C6.49609 11.8663 6.5492 11.7381 6.64374 11.6436C6.73827 11.549 6.86649 11.4959 7.00019 11.4959C7.1338 11.4959 7.26195 11.549 7.35647 11.6434C7.35653 11.6434 7.35658 11.6435 7.35663 11.6436L10.6461 14.943L11.5002 15.7997V14.59V7C11.5002 6.86739 11.5529 6.74022 11.6466 6.64645C11.7404 6.55268 11.8676 6.5 12.0002 6.5C12.1328 6.5 12.26 6.55268 12.3537 6.64645C12.4475 6.74022 12.5002 6.86739 12.5002 7V14.59V15.7997L13.3543 14.943L16.6443 11.643L16.6452 11.6421C16.6917 11.5952 16.747 11.558 16.8079 11.5327C16.8688 11.5073 16.9342 11.4942 17.0002 11.4942C17.0662 11.4942 17.1315 11.5073 17.1925 11.5327C17.2534 11.558 17.3087 11.5952 17.3552 11.6421Z" fill="#3B3B45" stroke="#FF5252"/>
</svg>
