<svg width="155" height="60" viewBox="0 0 155 60" fill="none" xmlns="http://www.w3.org/2000/svg">
<line x1="1" y1="33" x2="155" y2="33" stroke="#D1D1D3" stroke-dasharray="5 5"/>
<path d="M1 45L2.40885 47.85C3.68159 50.4246 7.33193 50.4841 8.68781 47.9522V47.9522C9.57422 46.297 11.6009 45.6248 13.3007 46.4222L14.2046 46.8462C16.662 47.9989 19.5773 46.776 20.4768 44.215L20.83 43.2093C21.6106 40.9872 23.7091 39.5 26.0644 39.5H27.6136C30.9752 39.5 33.9518 37.3286 34.9782 34.1275L37.8578 25.1471C38.6868 22.5615 40.7708 20.573 43.3924 19.8659L61.1246 15.0831C62.5387 14.7017 63.8209 13.9394 64.8315 12.8794L72.5113 4.82391C74.9562 2.25938 78.7968 1.60862 81.9501 3.22458L92.7017 8.73447C94.3013 9.5542 95.5782 10.8887 96.3266 12.5229L102.614 26.2513C102.842 26.7491 103.018 27.269 103.14 27.8029L107.236 45.7563C108.123 49.6436 113.561 49.9064 114.819 46.1228V46.1228C115.062 45.3904 115.515 44.7456 116.122 44.2684L118.409 42.4693C119.222 41.8292 119.904 41.0372 120.416 40.1373L135 14.5" stroke="#FFB800" stroke-width="2"/>
<circle cx="134.5" cy="14.5" r="8.5" fill="#FFB800" fill-opacity="0.15"/>
<circle cx="135" cy="15" r="3.5" fill="#FFB800" stroke="#FFB800"/>
</svg>
