<svg width="290" height="204" viewBox="0 0 290 204" fill="none" xmlns="http://www.w3.org/2000/svg">
<rect width="290" height="96" rx="12" fill="#F6F6F6"/>
<path d="M16.144 30.5L21.076 17.9H23.488L28.402 30.5H25.63L23.092 23.714C23.02 23.522 22.93 23.276 22.822 22.976C22.726 22.676 22.624 22.358 22.516 22.022C22.408 21.686 22.306 21.368 22.21 21.068C22.114 20.756 22.042 20.498 21.994 20.294L22.48 20.276C22.408 20.552 22.324 20.84 22.228 21.14C22.144 21.428 22.054 21.728 21.958 22.04C21.862 22.34 21.76 22.634 21.652 22.922C21.544 23.21 21.442 23.492 21.346 23.768L18.808 30.5H16.144ZM18.43 27.854L19.312 25.676H25.09L25.99 27.854H18.43ZM28.6772 30.5L33.6092 17.9H36.0212L40.9352 30.5H38.1632L35.6252 23.714C35.5532 23.522 35.4632 23.276 35.3552 22.976C35.2592 22.676 35.1572 22.358 35.0492 22.022C34.9412 21.686 34.8392 21.368 34.7432 21.068C34.6472 20.756 34.5752 20.498 34.5272 20.294L35.0132 20.276C34.9412 20.552 34.8572 20.84 34.7612 21.14C34.6772 21.428 34.5872 21.728 34.4912 22.04C34.3952 22.34 34.2932 22.634 34.1852 22.922C34.0772 23.21 33.9752 23.492 33.8792 23.768L31.3412 30.5H28.6772ZM30.9632 27.854L31.8452 25.676H37.6232L38.5232 27.854H30.9632ZM42.7044 30.5V17.9H48.0504C48.7944 17.9 49.4664 18.08 50.0664 18.44C50.6784 18.788 51.1584 19.268 51.5064 19.88C51.8664 20.492 52.0464 21.182 52.0464 21.95C52.0464 22.73 51.8664 23.432 51.5064 24.056C51.1584 24.68 50.6784 25.178 50.0664 25.55C49.4664 25.91 48.7944 26.09 48.0504 26.09H45.4044V30.5H42.7044ZM45.3684 23.66H47.7444C48.0324 23.66 48.2904 23.588 48.5184 23.444C48.7464 23.288 48.9264 23.084 49.0584 22.832C49.2024 22.58 49.2744 22.292 49.2744 21.968C49.2744 21.644 49.2024 21.362 49.0584 21.122C48.9264 20.87 48.7464 20.678 48.5184 20.546C48.2904 20.402 48.0324 20.33 47.7444 20.33H45.3684V23.66ZM54.4642 30.5V17.9H57.1642V28.07H62.8702V30.5H54.4642Z" fill="#3B3B45"/>
<path d="M94.6448 24.3579L94.6448 24.3579L94.6419 24.355C94.595 24.3085 94.5579 24.2532 94.5325 24.1923C94.5071 24.1314 94.494 24.066 94.494 24C94.494 23.934 94.5071 23.8686 94.5325 23.8077C94.5579 23.7468 94.595 23.6915 94.6419 23.645L94.6434 23.6436L99.6388 18.6481C99.6857 18.604 99.7406 18.5694 99.8006 18.5462L99.8114 18.542L99.8219 18.5373C99.878 18.5126 99.9386 18.4998 99.9998 18.4998C100.061 18.4998 100.122 18.5126 100.178 18.5373L100.188 18.542L100.199 18.5462C100.259 18.5694 100.314 18.604 100.361 18.6481L105.356 23.6436C105.451 23.7381 105.504 23.8663 105.504 24C105.504 24.1337 105.451 24.2619 105.356 24.3564C105.262 24.451 105.134 24.5041 105 24.5041C104.866 24.5041 104.738 24.451 104.644 24.3566C104.643 24.3566 104.643 24.3565 104.643 24.3564L101.354 21.057L100.5 20.2003V21.41V29C100.5 29.1326 100.447 29.2598 100.353 29.3536C100.26 29.4473 100.132 29.5 99.9998 29.5C99.8672 29.5 99.74 29.4473 99.6463 29.3536C99.5525 29.2598 99.4998 29.1326 99.4998 29V21.41V20.2003L98.6457 21.057L95.3557 24.357L95.3548 24.3579C95.3083 24.4048 95.253 24.442 95.1921 24.4673C95.1312 24.4927 95.0658 24.5058 94.9998 24.5058C94.9338 24.5058 94.8685 24.4927 94.8075 24.4673C94.7466 24.442 94.6913 24.4048 94.6448 24.3579Z" stroke="#00A441"/>
<path d="M20.74 61.15C19.84 61.15 19.05 60.985 18.37 60.655C17.69 60.325 17.11 59.84 16.63 59.2L17.785 57.685C18.295 58.345 18.79 58.805 19.27 59.065C19.75 59.325 20.29 59.455 20.89 59.455C21.23 59.455 21.54 59.405 21.82 59.305C22.1 59.195 22.32 59.05 22.48 58.87C22.64 58.68 22.72 58.465 22.72 58.225C22.72 58.055 22.685 57.9 22.615 57.76C22.555 57.61 22.46 57.48 22.33 57.37C22.2 57.25 22.04 57.14 21.85 57.04C21.66 56.94 21.445 56.855 21.205 56.785C20.965 56.715 20.7 56.65 20.41 56.59C19.67 56.44 19.055 56.225 18.565 55.945C18.085 55.655 17.725 55.295 17.485 54.865C17.245 54.435 17.125 53.93 17.125 53.35C17.125 52.91 17.22 52.505 17.41 52.135C17.61 51.765 17.88 51.445 18.22 51.175C18.56 50.905 18.955 50.695 19.405 50.545C19.855 50.395 20.34 50.32 20.86 50.32C21.68 50.32 22.405 50.47 23.035 50.77C23.665 51.06 24.185 51.495 24.595 52.075L23.485 53.425C23.145 52.965 22.75 52.62 22.3 52.39C21.86 52.15 21.38 52.03 20.86 52.03C20.5 52.03 20.185 52.08 19.915 52.18C19.655 52.28 19.45 52.425 19.3 52.615C19.15 52.795 19.075 53.015 19.075 53.275C19.075 53.475 19.12 53.655 19.21 53.815C19.3 53.965 19.425 54.1 19.585 54.22C19.755 54.34 19.97 54.445 20.23 54.535C20.49 54.625 20.785 54.705 21.115 54.775C21.665 54.885 22.16 55.035 22.6 55.225C23.04 55.405 23.415 55.625 23.725 55.885C24.035 56.135 24.27 56.425 24.43 56.755C24.59 57.075 24.67 57.435 24.67 57.835C24.67 58.525 24.505 59.12 24.175 59.62C23.855 60.11 23.4 60.49 22.81 60.76C22.22 61.02 21.53 61.15 20.74 61.15ZM19.84 62.365L19.9 55.495L21.265 55.99L21.325 62.365H19.84ZM21.79 55.99L20.425 55.495L20.365 49.24H21.85L21.79 55.99ZM28.6439 60.265V51.745L29.1989 52.465L27.0689 53.545L26.6339 51.835L29.4989 50.35H30.5789V60.265H28.6439ZM26.8889 61V59.2H32.3789V61H26.8889ZM38.5209 61V52.525L39.2409 52.6L35.6709 56.965L35.5059 56.695H42.1809V58.39H34.4559L33.6459 56.83L38.8659 50.47H40.3959V61H38.5209ZM43.6994 61L43.2044 59.77L46.3544 56.245C46.5344 56.065 46.7194 55.86 46.9094 55.63C47.0994 55.39 47.2794 55.145 47.4494 54.895C47.6294 54.635 47.7744 54.385 47.8844 54.145C47.9944 53.895 48.0494 53.665 48.0494 53.455C48.0494 53.185 47.9894 52.95 47.8694 52.75C47.7594 52.55 47.5994 52.395 47.3894 52.285C47.1794 52.175 46.9194 52.12 46.6094 52.12C46.3394 52.12 46.0744 52.2 45.8144 52.36C45.5644 52.51 45.3294 52.73 45.1094 53.02C44.8994 53.3 44.7244 53.635 44.5844 54.025L43.1144 53.155C43.2944 52.575 43.5644 52.075 43.9244 51.655C44.2944 51.225 44.7244 50.895 45.2144 50.665C45.7144 50.435 46.2544 50.32 46.8344 50.32C47.4344 50.32 47.9694 50.445 48.4394 50.695C48.9094 50.945 49.2794 51.29 49.5494 51.73C49.8294 52.17 49.9694 52.685 49.9694 53.275C49.9694 53.495 49.9444 53.725 49.8944 53.965C49.8444 54.195 49.7644 54.44 49.6544 54.7C49.5544 54.95 49.4194 55.215 49.2494 55.495C49.0794 55.765 48.8744 56.05 48.6344 56.35C48.4044 56.65 48.1394 56.965 47.8394 57.295L45.4544 59.89L45.1544 59.2H50.3444V61H43.6994ZM52.4871 61.165C52.1271 61.165 51.8471 61.06 51.6471 60.85C51.4571 60.64 51.3621 60.345 51.3621 59.965C51.3621 59.615 51.4621 59.33 51.6621 59.11C51.8721 58.88 52.1471 58.765 52.4871 58.765C52.8471 58.765 53.1221 58.87 53.3121 59.08C53.5121 59.28 53.6121 59.575 53.6121 59.965C53.6121 60.315 53.5071 60.605 53.2971 60.835C53.0971 61.055 52.8271 61.165 52.4871 61.165ZM57.5914 61L57.5314 60.85L60.7114 54.22L60.8914 55.345C60.7414 55.665 60.5564 55.95 60.3364 56.2C60.1264 56.45 59.8814 56.67 59.6014 56.86C59.3314 57.04 59.0514 57.18 58.7614 57.28C58.4714 57.37 58.1814 57.415 57.8914 57.415C57.3214 57.415 56.7964 57.265 56.3164 56.965C55.8364 56.655 55.4514 56.25 55.1614 55.75C54.8714 55.24 54.7264 54.685 54.7264 54.085C54.7264 53.375 54.8914 52.735 55.2214 52.165C55.5514 51.585 55.9964 51.13 56.5564 50.8C57.1264 50.46 57.7664 50.29 58.4764 50.29C58.9864 50.29 59.4664 50.385 59.9164 50.575C60.3764 50.755 60.7714 51.01 61.1014 51.34C61.4414 51.67 61.7064 52.05 61.8964 52.48C62.0964 52.91 62.1964 53.365 62.1964 53.845C62.1964 54.135 62.1664 54.435 62.1064 54.745C62.0564 55.045 61.9714 55.375 61.8514 55.735C61.7314 56.095 61.5764 56.49 61.3864 56.92C61.2064 57.35 60.9864 57.84 60.7264 58.39L59.4514 61H57.5914ZM58.3264 55.735C58.6864 55.735 59.0114 55.655 59.3014 55.495C59.5914 55.325 59.8164 55.105 59.9764 54.835C60.1364 54.565 60.2164 54.255 60.2164 53.905C60.2164 53.545 60.1364 53.22 59.9764 52.93C59.8164 52.64 59.5964 52.415 59.3164 52.255C59.0364 52.085 58.7164 52 58.3564 52C58.0164 52 57.7164 52.08 57.4564 52.24C57.1964 52.4 56.9864 52.625 56.8264 52.915C56.6764 53.195 56.6014 53.525 56.6014 53.905C56.6014 54.225 56.6764 54.525 56.8264 54.805C56.9864 55.085 57.1964 55.31 57.4564 55.48C57.7264 55.65 58.0164 55.735 58.3264 55.735ZM67.3949 61.15C66.5449 61.15 65.8149 60.935 65.2049 60.505C64.6049 60.065 64.1399 59.445 63.8099 58.645C63.4899 57.835 63.3299 56.87 63.3299 55.75C63.3299 54.63 63.4899 53.67 63.8099 52.87C64.1399 52.06 64.6049 51.44 65.2049 51.01C65.8149 50.57 66.5449 50.35 67.3949 50.35C68.2449 50.35 68.9749 50.57 69.5849 51.01C70.1949 51.44 70.6599 52.06 70.9799 52.87C71.3099 53.67 71.4749 54.63 71.4749 55.75C71.4749 56.87 71.3099 57.835 70.9799 58.645C70.6599 59.445 70.1949 60.065 69.5849 60.505C68.9749 60.935 68.2449 61.15 67.3949 61.15ZM67.3949 59.44C68.0949 59.44 68.6349 59.12 69.0149 58.48C69.4049 57.83 69.5999 56.92 69.5999 55.75C69.5999 54.57 69.4049 53.655 69.0149 53.005C68.6349 52.355 68.0949 52.03 67.3949 52.03C66.6949 52.03 66.1499 52.355 65.7599 53.005C65.3799 53.655 65.1899 54.57 65.1899 55.75C65.1899 56.92 65.3799 57.83 65.7599 58.48C66.1499 59.12 66.6949 59.44 67.3949 59.44Z" fill="#A3A3A6"/>
<path d="M16.552 77.252V76.004H22.564V77.252H16.552ZM18.844 79.508V73.688H20.26V79.508H18.844ZM26.8933 80.12C26.2133 80.12 25.6293 79.948 25.1413 79.604C24.6613 79.252 24.2893 78.756 24.0253 78.116C23.7693 77.468 23.6413 76.696 23.6413 75.8C23.6413 74.904 23.7693 74.136 24.0253 73.496C24.2893 72.848 24.6613 72.352 25.1413 72.008C25.6293 71.656 26.2133 71.48 26.8933 71.48C27.5733 71.48 28.1573 71.656 28.6453 72.008C29.1333 72.352 29.5053 72.848 29.7613 73.496C30.0253 74.136 30.1573 74.904 30.1573 75.8C30.1573 76.696 30.0253 77.468 29.7613 78.116C29.5053 78.756 29.1333 79.252 28.6453 79.604C28.1573 79.948 27.5733 80.12 26.8933 80.12ZM26.8933 78.752C27.4533 78.752 27.8853 78.496 28.1893 77.984C28.5013 77.464 28.6573 76.736 28.6573 75.8C28.6573 74.856 28.5013 74.124 28.1893 73.604C27.8853 73.084 27.4533 72.824 26.8933 72.824C26.3333 72.824 25.8973 73.084 25.5853 73.604C25.2813 74.124 25.1293 74.856 25.1293 75.8C25.1293 76.736 25.2813 77.464 25.5853 77.984C25.8973 78.496 26.3333 78.752 26.8933 78.752ZM32.1116 80.132C31.8236 80.132 31.5996 80.048 31.4396 79.88C31.2876 79.712 31.2116 79.476 31.2116 79.172C31.2116 78.892 31.2916 78.664 31.4516 78.488C31.6196 78.304 31.8396 78.212 32.1116 78.212C32.3996 78.212 32.6196 78.296 32.7716 78.464C32.9316 78.624 33.0116 78.86 33.0116 79.172C33.0116 79.452 32.9276 79.684 32.7596 79.868C32.5996 80.044 32.3836 80.132 32.1116 80.132ZM37.4503 80V73.22L38.0263 73.28L35.1703 76.772L35.0383 76.556H40.3783V77.912H34.1983L33.5503 76.664L37.7263 71.576H38.9503V80H37.4503ZM41.8451 80L45.2891 72.392L45.5771 72.98H41.2811V71.576H46.5731L46.7531 72.452L43.4651 80H41.8451ZM48.8999 80L54.4559 71.6H55.8839L50.2679 80H48.8999ZM49.5839 76.052C49.2079 76.052 48.8719 75.952 48.5759 75.752C48.2879 75.552 48.0599 75.28 47.8919 74.936C47.7319 74.592 47.6519 74.2 47.6519 73.76C47.6519 73.312 47.7319 72.916 47.8919 72.572C48.0599 72.22 48.2879 71.944 48.5759 71.744C48.8719 71.544 49.2119 71.444 49.5959 71.444C49.9719 71.444 50.3039 71.544 50.5919 71.744C50.8879 71.944 51.1159 72.22 51.2759 72.572C51.4439 72.916 51.5279 73.312 51.5279 73.76C51.5279 74.192 51.4439 74.584 51.2759 74.936C51.1079 75.28 50.8759 75.552 50.5799 75.752C50.2839 75.952 49.9519 76.052 49.5839 76.052ZM49.5959 75.032C49.7479 75.032 49.8799 74.98 49.9919 74.876C50.1039 74.772 50.1919 74.628 50.2559 74.444C50.3199 74.252 50.3519 74.024 50.3519 73.76C50.3519 73.496 50.3199 73.268 50.2559 73.076C50.1919 72.884 50.1039 72.736 49.9919 72.632C49.8799 72.528 49.7439 72.476 49.5839 72.476C49.4319 72.476 49.2959 72.532 49.1759 72.644C49.0639 72.748 48.9759 72.896 48.9119 73.088C48.8479 73.272 48.8159 73.496 48.8159 73.76C48.8159 74.024 48.8439 74.252 48.8999 74.444C48.9639 74.628 49.0559 74.772 49.1759 74.876C49.2959 74.98 49.4359 75.032 49.5959 75.032ZM55.2839 80.108C54.9079 80.108 54.5719 80.008 54.2759 79.808C53.9879 79.608 53.7599 79.336 53.5919 78.992C53.4239 78.648 53.3399 78.256 53.3399 77.816C53.3399 77.368 53.4199 76.972 53.5799 76.628C53.7479 76.276 53.9799 76 54.2759 75.8C54.5719 75.6 54.9079 75.5 55.2839 75.5C55.6679 75.5 56.0039 75.6 56.2919 75.8C56.5799 76 56.8039 76.276 56.9639 76.628C57.1319 76.972 57.2159 77.368 57.2159 77.816C57.2159 78.248 57.1319 78.64 56.9639 78.992C56.7959 79.336 56.5639 79.608 56.2679 79.808C55.9799 80.008 55.6519 80.108 55.2839 80.108ZM55.2839 79.1C55.4359 79.1 55.5679 79.048 55.6799 78.944C55.7999 78.832 55.8919 78.684 55.9559 78.5C56.0199 78.308 56.0519 78.08 56.0519 77.816C56.0519 77.56 56.0199 77.336 55.9559 77.144C55.8919 76.952 55.7999 76.804 55.6799 76.7C55.5679 76.588 55.4359 76.532 55.2839 76.532C55.1239 76.532 54.9839 76.584 54.8639 76.688C54.7519 76.792 54.6639 76.944 54.5999 77.144C54.5359 77.336 54.5039 77.56 54.5039 77.816C54.5039 78.08 54.5359 78.308 54.5999 78.5C54.6639 78.684 54.7519 78.832 54.8639 78.944C54.9839 79.048 55.1239 79.1 55.2839 79.1Z" fill="#00A441"/>
<line x1="120" y1="51" x2="274" y2="51" stroke="#D1D1D3" stroke-dasharray="5 5"/>
<path d="M120 63L121.409 65.85C122.682 68.4246 126.332 68.4841 127.688 65.9522V65.9522C128.574 64.297 130.601 63.6248 132.301 64.4222L133.205 64.8462C135.662 65.9989 138.577 64.776 139.477 62.215L139.83 61.2093C140.611 58.9872 142.709 57.5 145.064 57.5H146.614C149.975 57.5 152.952 55.3286 153.978 52.1275L156.858 43.1471C157.687 40.5615 159.771 38.573 162.392 37.8659L180.125 33.0831C181.539 32.7017 182.821 31.9394 183.832 30.8794L191.511 22.8239C193.956 20.2594 197.797 19.6086 200.95 21.2246L211.702 26.7345C213.301 27.5542 214.578 28.8887 215.327 30.5229L221.614 44.2513C221.842 44.7491 222.018 45.269 222.14 45.8029L226.236 63.7563C227.123 67.6436 232.561 67.9064 233.819 64.1228V64.1228C234.062 63.3904 234.515 62.7456 235.122 62.2684L237.409 60.4693C238.222 59.8292 238.904 59.0372 239.416 58.1373L254 32.5" stroke="#FFB800" stroke-width="2"/>
<circle cx="253.5" cy="32.5" r="8.5" fill="#FFB800" fill-opacity="0.15"/>
<circle cx="254" cy="33" r="3.5" fill="#FFB800" stroke="#FFB800"/>
<rect y="108" width="290" height="96" rx="12" fill="#F6F6F6"/>
<path d="M17.638 138.5V125.9H23.11C23.95 125.9 24.658 126.026 25.234 126.278C25.822 126.518 26.266 126.872 26.566 127.34C26.866 127.808 27.016 128.366 27.016 129.014C27.016 129.734 26.836 130.334 26.476 130.814C26.116 131.294 25.6 131.624 24.928 131.804L24.91 131.444C25.462 131.576 25.948 131.792 26.368 132.092C26.788 132.392 27.112 132.764 27.34 133.208C27.568 133.652 27.682 134.156 27.682 134.72C27.682 135.344 27.58 135.896 27.376 136.376C27.172 136.844 26.872 137.234 26.476 137.546C26.08 137.858 25.612 138.098 25.072 138.266C24.544 138.422 23.95 138.5 23.29 138.5H17.638ZM20.23 136.16H23.182C23.566 136.16 23.89 136.106 24.154 135.998C24.43 135.878 24.64 135.698 24.784 135.458C24.928 135.218 25 134.936 25 134.612C25 134.3 24.922 134.036 24.766 133.82C24.61 133.604 24.388 133.442 24.1 133.334C23.824 133.214 23.488 133.154 23.092 133.154H20.23V136.16ZM20.23 131.012H22.786C23.11 131.012 23.392 130.952 23.632 130.832C23.872 130.712 24.052 130.55 24.172 130.346C24.304 130.142 24.37 129.902 24.37 129.626C24.37 129.182 24.226 128.84 23.938 128.6C23.65 128.36 23.218 128.24 22.642 128.24H20.23V131.012ZM30.136 138.5V125.9H35.482C36.226 125.9 36.898 126.08 37.498 126.44C38.11 126.788 38.59 127.268 38.938 127.88C39.298 128.492 39.478 129.182 39.478 129.95C39.478 130.73 39.298 131.432 38.938 132.056C38.59 132.68 38.11 133.178 37.498 133.55C36.898 133.91 36.226 134.09 35.482 134.09H32.836V138.5H30.136ZM32.8 131.66H35.176C35.464 131.66 35.722 131.588 35.95 131.444C36.178 131.288 36.358 131.084 36.49 130.832C36.634 130.58 36.706 130.292 36.706 129.968C36.706 129.644 36.634 129.362 36.49 129.122C36.358 128.87 36.178 128.678 35.95 128.546C35.722 128.402 35.464 128.33 35.176 128.33H32.8V131.66ZM41.8958 138.5V125.9H44.5958V136.07H50.3018V138.5H41.8958Z" fill="#3B3B45"/>
<path d="M105.355 131.642L105.355 131.642L105.358 131.645C105.405 131.691 105.442 131.747 105.468 131.808C105.493 131.869 105.506 131.934 105.506 132C105.506 132.066 105.493 132.131 105.468 132.192C105.442 132.253 105.405 132.309 105.358 132.355L105.357 132.356L100.361 137.352C100.314 137.396 100.259 137.431 100.199 137.454L100.189 137.458L100.178 137.463C100.122 137.487 100.061 137.5 100 137.5C99.9389 137.5 99.8783 137.487 99.8223 137.463L99.8117 137.458L99.8009 137.454C99.741 137.431 99.6861 137.396 99.6392 137.352L94.6437 132.356C94.5492 132.262 94.4961 132.134 94.4961 132C94.4961 131.866 94.5492 131.738 94.6437 131.644C94.7383 131.549 94.8665 131.496 95.0002 131.496C95.1338 131.496 95.262 131.549 95.3565 131.643C95.3565 131.643 95.3566 131.644 95.3566 131.644L98.6461 134.943L99.5002 135.8V134.59V127C99.5002 126.867 99.5529 126.74 99.6466 126.646C99.7404 126.553 99.8676 126.5 100 126.5C100.133 126.5 100.26 126.553 100.354 126.646C100.448 126.74 100.5 126.867 100.5 127V134.59V135.8L101.354 134.943L104.644 131.643L104.645 131.642C104.692 131.595 104.747 131.558 104.808 131.533C104.869 131.507 104.934 131.494 105 131.494C105.066 131.494 105.132 131.507 105.192 131.533C105.253 131.558 105.309 131.595 105.355 131.642Z" fill="#3B3B45" stroke="#FF5252"/>
<path d="M20.74 169.15C19.84 169.15 19.05 168.985 18.37 168.655C17.69 168.325 17.11 167.84 16.63 167.2L17.785 165.685C18.295 166.345 18.79 166.805 19.27 167.065C19.75 167.325 20.29 167.455 20.89 167.455C21.23 167.455 21.54 167.405 21.82 167.305C22.1 167.195 22.32 167.05 22.48 166.87C22.64 166.68 22.72 166.465 22.72 166.225C22.72 166.055 22.685 165.9 22.615 165.76C22.555 165.61 22.46 165.48 22.33 165.37C22.2 165.25 22.04 165.14 21.85 165.04C21.66 164.94 21.445 164.855 21.205 164.785C20.965 164.715 20.7 164.65 20.41 164.59C19.67 164.44 19.055 164.225 18.565 163.945C18.085 163.655 17.725 163.295 17.485 162.865C17.245 162.435 17.125 161.93 17.125 161.35C17.125 160.91 17.22 160.505 17.41 160.135C17.61 159.765 17.88 159.445 18.22 159.175C18.56 158.905 18.955 158.695 19.405 158.545C19.855 158.395 20.34 158.32 20.86 158.32C21.68 158.32 22.405 158.47 23.035 158.77C23.665 159.06 24.185 159.495 24.595 160.075L23.485 161.425C23.145 160.965 22.75 160.62 22.3 160.39C21.86 160.15 21.38 160.03 20.86 160.03C20.5 160.03 20.185 160.08 19.915 160.18C19.655 160.28 19.45 160.425 19.3 160.615C19.15 160.795 19.075 161.015 19.075 161.275C19.075 161.475 19.12 161.655 19.21 161.815C19.3 161.965 19.425 162.1 19.585 162.22C19.755 162.34 19.97 162.445 20.23 162.535C20.49 162.625 20.785 162.705 21.115 162.775C21.665 162.885 22.16 163.035 22.6 163.225C23.04 163.405 23.415 163.625 23.725 163.885C24.035 164.135 24.27 164.425 24.43 164.755C24.59 165.075 24.67 165.435 24.67 165.835C24.67 166.525 24.505 167.12 24.175 167.62C23.855 168.11 23.4 168.49 22.81 168.76C22.22 169.02 21.53 169.15 20.74 169.15ZM19.84 170.365L19.9 163.495L21.265 163.99L21.325 170.365H19.84ZM21.79 163.99L20.425 163.495L20.365 157.24H21.85L21.79 163.99ZM28.6439 168.265V159.745L29.1989 160.465L27.0689 161.545L26.6339 159.835L29.4989 158.35H30.5789V168.265H28.6439ZM26.8889 169V167.2H32.3789V169H26.8889ZM38.5209 169V160.525L39.2409 160.6L35.6709 164.965L35.5059 164.695H42.1809V166.39H34.4559L33.6459 164.83L38.8659 158.47H40.3959V169H38.5209ZM43.6994 169L43.2044 167.77L46.3544 164.245C46.5344 164.065 46.7194 163.86 46.9094 163.63C47.0994 163.39 47.2794 163.145 47.4494 162.895C47.6294 162.635 47.7744 162.385 47.8844 162.145C47.9944 161.895 48.0494 161.665 48.0494 161.455C48.0494 161.185 47.9894 160.95 47.8694 160.75C47.7594 160.55 47.5994 160.395 47.3894 160.285C47.1794 160.175 46.9194 160.12 46.6094 160.12C46.3394 160.12 46.0744 160.2 45.8144 160.36C45.5644 160.51 45.3294 160.73 45.1094 161.02C44.8994 161.3 44.7244 161.635 44.5844 162.025L43.1144 161.155C43.2944 160.575 43.5644 160.075 43.9244 159.655C44.2944 159.225 44.7244 158.895 45.2144 158.665C45.7144 158.435 46.2544 158.32 46.8344 158.32C47.4344 158.32 47.9694 158.445 48.4394 158.695C48.9094 158.945 49.2794 159.29 49.5494 159.73C49.8294 160.17 49.9694 160.685 49.9694 161.275C49.9694 161.495 49.9444 161.725 49.8944 161.965C49.8444 162.195 49.7644 162.44 49.6544 162.7C49.5544 162.95 49.4194 163.215 49.2494 163.495C49.0794 163.765 48.8744 164.05 48.6344 164.35C48.4044 164.65 48.1394 164.965 47.8394 165.295L45.4544 167.89L45.1544 167.2H50.3444V169H43.6994ZM52.4871 169.165C52.1271 169.165 51.8471 169.06 51.6471 168.85C51.4571 168.64 51.3621 168.345 51.3621 167.965C51.3621 167.615 51.4621 167.33 51.6621 167.11C51.8721 166.88 52.1471 166.765 52.4871 166.765C52.8471 166.765 53.1221 166.87 53.3121 167.08C53.5121 167.28 53.6121 167.575 53.6121 167.965C53.6121 168.315 53.5071 168.605 53.2971 168.835C53.0971 169.055 52.8271 169.165 52.4871 169.165ZM57.5914 169L57.5314 168.85L60.7114 162.22L60.8914 163.345C60.7414 163.665 60.5564 163.95 60.3364 164.2C60.1264 164.45 59.8814 164.67 59.6014 164.86C59.3314 165.04 59.0514 165.18 58.7614 165.28C58.4714 165.37 58.1814 165.415 57.8914 165.415C57.3214 165.415 56.7964 165.265 56.3164 164.965C55.8364 164.655 55.4514 164.25 55.1614 163.75C54.8714 163.24 54.7264 162.685 54.7264 162.085C54.7264 161.375 54.8914 160.735 55.2214 160.165C55.5514 159.585 55.9964 159.13 56.5564 158.8C57.1264 158.46 57.7664 158.29 58.4764 158.29C58.9864 158.29 59.4664 158.385 59.9164 158.575C60.3764 158.755 60.7714 159.01 61.1014 159.34C61.4414 159.67 61.7064 160.05 61.8964 160.48C62.0964 160.91 62.1964 161.365 62.1964 161.845C62.1964 162.135 62.1664 162.435 62.1064 162.745C62.0564 163.045 61.9714 163.375 61.8514 163.735C61.7314 164.095 61.5764 164.49 61.3864 164.92C61.2064 165.35 60.9864 165.84 60.7264 166.39L59.4514 169H57.5914ZM58.3264 163.735C58.6864 163.735 59.0114 163.655 59.3014 163.495C59.5914 163.325 59.8164 163.105 59.9764 162.835C60.1364 162.565 60.2164 162.255 60.2164 161.905C60.2164 161.545 60.1364 161.22 59.9764 160.93C59.8164 160.64 59.5964 160.415 59.3164 160.255C59.0364 160.085 58.7164 160 58.3564 160C58.0164 160 57.7164 160.08 57.4564 160.24C57.1964 160.4 56.9864 160.625 56.8264 160.915C56.6764 161.195 56.6014 161.525 56.6014 161.905C56.6014 162.225 56.6764 162.525 56.8264 162.805C56.9864 163.085 57.1964 163.31 57.4564 163.48C57.7264 163.65 58.0164 163.735 58.3264 163.735ZM67.3949 169.15C66.5449 169.15 65.8149 168.935 65.2049 168.505C64.6049 168.065 64.1399 167.445 63.8099 166.645C63.4899 165.835 63.3299 164.87 63.3299 163.75C63.3299 162.63 63.4899 161.67 63.8099 160.87C64.1399 160.06 64.6049 159.44 65.2049 159.01C65.8149 158.57 66.5449 158.35 67.3949 158.35C68.2449 158.35 68.9749 158.57 69.5849 159.01C70.1949 159.44 70.6599 160.06 70.9799 160.87C71.3099 161.67 71.4749 162.63 71.4749 163.75C71.4749 164.87 71.3099 165.835 70.9799 166.645C70.6599 167.445 70.1949 168.065 69.5849 168.505C68.9749 168.935 68.2449 169.15 67.3949 169.15ZM67.3949 167.44C68.0949 167.44 68.6349 167.12 69.0149 166.48C69.4049 165.83 69.5999 164.92 69.5999 163.75C69.5999 162.57 69.4049 161.655 69.0149 161.005C68.6349 160.355 68.0949 160.03 67.3949 160.03C66.6949 160.03 66.1499 160.355 65.7599 161.005C65.3799 161.655 65.1899 162.57 65.1899 163.75C65.1899 164.92 65.3799 165.83 65.7599 166.48C66.1499 167.12 66.6949 167.44 67.3949 167.44Z" fill="#A3A3A6"/>
<path d="M16.624 185.276V183.86H20.332V185.276H16.624ZM24.737 188.12C24.057 188.12 23.473 187.948 22.985 187.604C22.505 187.252 22.133 186.756 21.869 186.116C21.613 185.468 21.485 184.696 21.485 183.8C21.485 182.904 21.613 182.136 21.869 181.496C22.133 180.848 22.505 180.352 22.985 180.008C23.473 179.656 24.057 179.48 24.737 179.48C25.417 179.48 26.001 179.656 26.489 180.008C26.977 180.352 27.349 180.848 27.605 181.496C27.869 182.136 28.001 182.904 28.001 183.8C28.001 184.696 27.869 185.468 27.605 186.116C27.349 186.756 26.977 187.252 26.489 187.604C26.001 187.948 25.417 188.12 24.737 188.12ZM24.737 186.752C25.297 186.752 25.729 186.496 26.033 185.984C26.345 185.464 26.501 184.736 26.501 183.8C26.501 182.856 26.345 182.124 26.033 181.604C25.729 181.084 25.297 180.824 24.737 180.824C24.177 180.824 23.741 181.084 23.429 181.604C23.125 182.124 22.973 182.856 22.973 183.8C22.973 184.736 23.125 185.464 23.429 185.984C23.741 186.496 24.177 186.752 24.737 186.752ZM29.9553 188.132C29.6673 188.132 29.4433 188.048 29.2833 187.88C29.1313 187.712 29.0553 187.476 29.0553 187.172C29.0553 186.892 29.1353 186.664 29.2953 186.488C29.4633 186.304 29.6833 186.212 29.9553 186.212C30.2433 186.212 30.4633 186.296 30.6153 186.464C30.7753 186.624 30.8553 186.86 30.8553 187.172C30.8553 187.452 30.7713 187.684 30.6033 187.868C30.4433 188.044 30.2273 188.132 29.9553 188.132ZM32.6107 188L36.0547 180.392L36.3427 180.98H32.0467V179.576H37.3387L37.5187 180.452L34.2307 188H32.6107ZM41.2071 188.036C40.6711 188.036 40.1791 187.928 39.7311 187.712C39.2911 187.488 38.9391 187.192 38.6751 186.824C38.4111 186.448 38.2791 186.032 38.2791 185.576C38.2791 185.304 38.3151 185.052 38.3871 184.82C38.4671 184.588 38.5791 184.38 38.7231 184.196C38.8751 184.012 39.0551 183.848 39.2631 183.704C39.4791 183.552 39.7231 183.42 39.9951 183.308L39.8991 183.644C39.6911 183.556 39.4991 183.452 39.3231 183.332C39.1551 183.212 39.0071 183.076 38.8791 182.924C38.7591 182.764 38.6671 182.596 38.6031 182.42C38.5391 182.236 38.5071 182.044 38.5071 181.844C38.5071 181.412 38.6271 181.024 38.8671 180.68C39.1151 180.336 39.4431 180.064 39.8511 179.864C40.2591 179.656 40.7111 179.552 41.2071 179.552C41.7111 179.552 42.1671 179.656 42.5751 179.864C42.9831 180.064 43.3071 180.336 43.5471 180.68C43.7951 181.024 43.9191 181.412 43.9191 181.844C43.9191 182.044 43.8871 182.236 43.8231 182.42C43.7591 182.596 43.6671 182.76 43.5471 182.912C43.4351 183.056 43.2911 183.192 43.1151 183.32C42.9391 183.44 42.7351 183.548 42.5031 183.644L42.4431 183.356C42.6991 183.444 42.9311 183.56 43.1391 183.704C43.3471 183.848 43.5271 184.016 43.6791 184.208C43.8311 184.4 43.9471 184.612 44.0271 184.844C44.1151 185.076 44.1591 185.32 44.1591 185.576C44.1591 186.04 44.0271 186.46 43.7631 186.836C43.4991 187.204 43.1431 187.496 42.6951 187.712C42.2551 187.928 41.7591 188.036 41.2071 188.036ZM41.2071 186.692C41.4791 186.692 41.7231 186.64 41.9391 186.536C42.1551 186.432 42.3231 186.292 42.4431 186.116C42.5711 185.94 42.6351 185.736 42.6351 185.504C42.6351 185.256 42.5711 185.04 42.4431 184.856C42.3231 184.664 42.1551 184.516 41.9391 184.412C41.7231 184.3 41.4791 184.244 41.2071 184.244C40.9431 184.244 40.7031 184.3 40.4871 184.412C40.2791 184.516 40.1111 184.664 39.9831 184.856C39.8551 185.04 39.7911 185.256 39.7911 185.504C39.7911 185.728 39.8551 185.928 39.9831 186.104C40.1111 186.28 40.2791 186.424 40.4871 186.536C40.7031 186.64 40.9431 186.692 41.2071 186.692ZM41.2071 182.924C41.4471 182.924 41.6591 182.88 41.8431 182.792C42.0351 182.704 42.1831 182.584 42.2871 182.432C42.3911 182.28 42.4431 182.104 42.4431 181.904C42.4431 181.696 42.3911 181.516 42.2871 181.364C42.1831 181.204 42.0351 181.08 41.8431 180.992C41.6591 180.896 41.4471 180.848 41.2071 180.848C40.9751 180.848 40.7631 180.896 40.5711 180.992C40.3871 181.08 40.2431 181.204 40.1391 181.364C40.0351 181.516 39.9831 181.696 39.9831 181.904C39.9831 182.104 40.0351 182.28 40.1391 182.432C40.2431 182.584 40.3871 182.704 40.5711 182.792C40.7631 182.88 40.9751 182.924 41.2071 182.924ZM46.4624 188L52.0184 179.6H53.4464L47.8304 188H46.4624ZM47.1464 184.052C46.7704 184.052 46.4344 183.952 46.1384 183.752C45.8504 183.552 45.6224 183.28 45.4544 182.936C45.2944 182.592 45.2144 182.2 45.2144 181.76C45.2144 181.312 45.2944 180.916 45.4544 180.572C45.6224 180.22 45.8504 179.944 46.1384 179.744C46.4344 179.544 46.7744 179.444 47.1584 179.444C47.5344 179.444 47.8664 179.544 48.1544 179.744C48.4504 179.944 48.6784 180.22 48.8384 180.572C49.0064 180.916 49.0904 181.312 49.0904 181.76C49.0904 182.192 49.0064 182.584 48.8384 182.936C48.6704 183.28 48.4384 183.552 48.1424 183.752C47.8464 183.952 47.5144 184.052 47.1464 184.052ZM47.1584 183.032C47.3104 183.032 47.4424 182.98 47.5544 182.876C47.6664 182.772 47.7544 182.628 47.8184 182.444C47.8824 182.252 47.9144 182.024 47.9144 181.76C47.9144 181.496 47.8824 181.268 47.8184 181.076C47.7544 180.884 47.6664 180.736 47.5544 180.632C47.4424 180.528 47.3064 180.476 47.1464 180.476C46.9944 180.476 46.8584 180.532 46.7384 180.644C46.6264 180.748 46.5384 180.896 46.4744 181.088C46.4104 181.272 46.3784 181.496 46.3784 181.76C46.3784 182.024 46.4064 182.252 46.4624 182.444C46.5264 182.628 46.6184 182.772 46.7384 182.876C46.8584 182.98 46.9984 183.032 47.1584 183.032ZM52.8464 188.108C52.4704 188.108 52.1344 188.008 51.8384 187.808C51.5504 187.608 51.3224 187.336 51.1544 186.992C50.9864 186.648 50.9024 186.256 50.9024 185.816C50.9024 185.368 50.9824 184.972 51.1424 184.628C51.3104 184.276 51.5424 184 51.8384 183.8C52.1344 183.6 52.4704 183.5 52.8464 183.5C53.2304 183.5 53.5664 183.6 53.8544 183.8C54.1424 184 54.3664 184.276 54.5264 184.628C54.6944 184.972 54.7784 185.368 54.7784 185.816C54.7784 186.248 54.6944 186.64 54.5264 186.992C54.3584 187.336 54.1264 187.608 53.8304 187.808C53.5424 188.008 53.2144 188.108 52.8464 188.108ZM52.8464 187.1C52.9984 187.1 53.1304 187.048 53.2424 186.944C53.3624 186.832 53.4544 186.684 53.5184 186.5C53.5824 186.308 53.6144 186.08 53.6144 185.816C53.6144 185.56 53.5824 185.336 53.5184 185.144C53.4544 184.952 53.3624 184.804 53.2424 184.7C53.1304 184.588 52.9984 184.532 52.8464 184.532C52.6864 184.532 52.5464 184.584 52.4264 184.688C52.3144 184.792 52.2264 184.944 52.1624 185.144C52.0984 185.336 52.0664 185.56 52.0664 185.816C52.0664 186.08 52.0984 186.308 52.1624 186.5C52.2264 186.684 52.3144 186.832 52.4264 186.944C52.5464 187.048 52.6864 187.1 52.8464 187.1Z" fill="#FF5252"/>
<line x1="120" y1="159" x2="274" y2="159" stroke="#D1D1D3" stroke-dasharray="5 5"/>
<path d="M120 171L121.409 173.85C122.682 176.425 126.332 176.484 127.688 173.952V173.952C128.574 172.297 130.601 171.625 132.301 172.422L133.205 172.846C135.662 173.999 138.577 172.776 139.477 170.215L139.83 169.209C140.611 166.987 142.709 165.5 145.064 165.5H146.614C149.975 165.5 152.952 163.329 153.978 160.128L156.858 151.147C157.687 148.562 159.771 146.573 162.392 145.866L180.125 141.083C181.539 140.702 182.821 139.939 183.832 138.879L191.511 130.824C193.956 128.259 197.797 127.609 200.95 129.225L211.702 134.734C213.301 135.554 214.578 136.889 215.327 138.523L221.614 152.251C221.842 152.749 222.018 153.269 222.14 153.803L226.236 171.756C227.123 175.644 232.561 175.906 233.819 172.123V172.123C234.062 171.39 234.515 170.746 235.122 170.268L237.409 168.469C238.222 167.829 238.904 167.037 239.416 166.137L254 140.5" stroke="#FFB800" stroke-width="2"/>
<circle cx="253.5" cy="140.5" r="8.5" fill="#FFB800" fill-opacity="0.15"/>
<circle cx="254" cy="141" r="4" fill="#FFB800"/>
</svg>
